# xmcd
#
# Track frame offsets: 
#        150
#        21247
#        36648
#        57312
#        74969
#        89523
#        109650
#        124607
#        142884
#        162031
#        182635
#
# Disc length: 2747 seconds
#
# Revision: 0
# Processed by: cddbd v1.5.2PL0 Copyright (c) Steve Scherf et al.
# Submitted via: ExactAudioCopy v0.95b4
#
DISCID=9e0ab90b
DTITLE=Rob Baird - I Swear It's The Truth
DYEAR=2012
DGENRE=Country
TTITLE0=Dreams and Gasoline
TTITLE1=Along the Way
TTITLE2=Same Damn Thing
TTITLE3=Black and Blue
TTITLE4=More Than Willing
TTITLE5=Redemption
TTITLE6=Don't Cry for Me
TTITLE7=Can't Stop Running
TTITLE8=Please, Please
TTITLE9=40 Days and 40 Nights
TTITLE10=I Can't Get Over You
EXTD=
EXTT0=
EXTT1=
EXTT2=
EXTT3=
EXTT4=
EXTT5=
EXTT6=
EXTT7=
EXTT8=
EXTT9=
EXTT10=
PLAYORDER=
